<?xml version="1.0" standalone="no"?>
<!DOCTYPE svg PUBLIC "-//W3C//DTD SVG 20010904//EN"
 "http://www.w3.org/TR/2001/REC-SVG-20010904/DTD/svg10.dtd">
<svg version="1.0" xmlns="http://www.w3.org/2000/svg"
 width="295.000000pt" height="295.000000pt" viewBox="0 0 295.000000 295.000000"
 preserveAspectRatio="xMidYMid meet">
<metadata>
Created by potrace 1.11, written by Peter Selinger 2001-2013
</metadata>
<g transform="translate(0.000000,295.000000) scale(0.100000,-0.100000)"
fill="#000000" stroke="none">
<path d="M1345 2623 c-11 -2 -62 -13 -114 -24 -425 -94 -768 -431 -874 -859
-44 -176 -43 -399 3 -575 112 -429 474 -773 900 -854 114 -21 298 -30 370 -17
14 3 54 10 90 16 337 60 666 310 823 625 47 96 93 236 103 318 3 23 9 56 13
72 4 17 6 84 5 150 -9 495 -316 922 -782 1089 -40 14 -82 28 -95 30 -12 2 -44
10 -72 16 -47 12 -327 22 -370 13z m334 -133 c198 -36 385 -130 533 -269 201
-188 312 -430 325 -711 19 -419 -202 -800 -575 -989 -236 -120 -548 -141 -802
-54 -368 126 -632 436 -700 823 -12 65 -15 260 -5 315 30 171 83 308 170 440
51 77 202 229 282 282 127 85 305 154 448 171 87 11 241 7 324 -8z"/>
<path d="M837 1902 c-41 -46 -16 -84 98 -149 125 -71 184 -107 179 -112 -2 -3
-66 -41 -141 -86 -144 -84 -170 -110 -151 -150 19 -42 51 -47 106 -17 196 107
363 210 374 230 18 35 -5 68 -77 111 -166 101 -333 191 -351 191 -12 0 -28 -8
-37 -18z"/>
<path d="M1900 1810 c-102 -60 -193 -116 -202 -126 -24 -23 -23 -59 1 -81 39
-35 390 -233 415 -233 32 0 56 25 56 59 0 36 -10 44 -160 130 -69 40 -128 76
-133 80 -4 4 52 42 125 85 73 43 141 85 151 94 36 32 5 103 -45 101 -13 0
-106 -49 -208 -109z"/>
<path d="M826 981 c95 -171 291 -318 481 -362 26 -6 57 -13 68 -15 54 -14 233
-5 307 15 139 36 279 119 371 218 50 54 127 162 127 178 0 9 -173 12 -690 12
l-689 0 25 -46z"/>
</g>
</svg>
